<?xml version="1.0" standalone="no"?>
<!DOCTYPE svg PUBLIC "-//W3C//DTD SVG 20010904//EN"
 "http://www.w3.org/TR/2001/REC-SVG-20010904/DTD/svg10.dtd">
<svg version="1.0" xmlns="http://www.w3.org/2000/svg"
 width="200.000000pt" height="200.000000pt" viewBox="0 0 200.000000 200.000000"
 preserveAspectRatio="xMidYMid meet">

<g transform="translate(0.000000,200.000000) scale(0.100000,-0.100000)"
fill="#fff" stroke="none">
<path d="M1360 1896 c-86 -24 -163 -77 -158 -110 4 -29 44 -33 71 -8 38 34 85
52 165 64 185 27 406 -72 477 -213 24 -47 40 -60 63 -52 24 9 12 61 -27 119
-90 134 -265 215 -460 213 -47 0 -106 -6 -131 -13z"/>
<path d="M1411 1719 c-112 -22 -222 -137 -155 -163 8 -3 29 10 49 30 101 101
281 100 395 -3 51 -46 66 -73 78 -143 5 -33 13 -46 27 -49 30 -5 44 23 34 73
-13 69 -34 111 -78 155 -87 87 -221 126 -350 100z"/>
<path d="M645 1637 c-263 -88 -390 -379 -269 -620 13 -27 24 -52 24 -57 0 -4
-14 -13 -32 -21 -43 -18 -151 -121 -203 -194 -98 -138 -145 -268 -152 -415 -4
-95 -2 -109 19 -150 29 -57 89 -90 163 -90 99 0 136 46 180 221 27 110 49 152
83 157 27 4 44 25 36 46 -4 11 -18 16 -46 16 -72 0 -105 -53 -144 -234 -21
-100 -52 -139 -110 -139 -95 0 -119 31 -119 153 1 193 144 457 303 559 27 17
54 31 60 31 6 0 35 -18 63 -39 136 -103 326 -119 480 -41 63 33 145 116 180
184 26 51 41 67 73 82 47 22 76 62 106 142 11 32 27 76 36 100 32 86 104 127
178 102 44 -14 56 -35 56 -95 0 -132 -145 -394 -341 -615 -51 -58 -103 -128
-116 -156 -35 -76 -62 -195 -68 -298 -7 -98 1 -143 28 -160 31 -19 40 6 38
106 -4 190 43 327 154 449 228 250 391 561 371 708 -12 90 -70 131 -186 131
-95 0 -137 -43 -196 -203 -37 -102 -60 -147 -74 -147 -4 0 -9 39 -12 88 -3 72
-10 99 -35 155 -44 93 -118 169 -211 215 -70 34 -82 37 -176 39 -64 2 -116 -2
-141 -10z m255 -72 c152 -52 263 -228 246 -390 -13 -121 -97 -245 -203 -299
-228 -115 -496 22 -543 277 -34 184 97 379 287 427 50 12 157 5 213 -15z"/>
<path d="M605 1373 c-12 -2 -34 -14 -49 -26 -22 -18 -27 -28 -22 -45 8 -24 35
-29 54 -10 7 7 33 15 60 18 40 4 47 8 50 29 6 36 -26 48 -93 34z"/>
<path d="M856 1368 c-32 -25 -16 -52 34 -58 25 -3 55 -12 66 -20 28 -18 56 -6
52 21 -7 47 -112 86 -152 57z"/>
<path d="M589 1044 c-18 -22 -3 -44 47 -69 56 -28 212 -28 268 0 52 26 66 49
44 71 -15 15 -19 15 -60 -5 -61 -29 -177 -29 -233 -1 -47 24 -49 24 -66 4z"/>
</g>
</svg>
